<svg xmlns="http://www.w3.org/2000/svg" height="48" viewBox="0 96 960 960" width="48"><path d="M480 997q-88 0-166-32t-134.5-88.5Q123 820 91 742T59 576q0-89 32-166t88.5-134Q236 219 314 186.5T480 154q55 0 105 15t96 42q16 8 21 26.5t-6 31.5q-11 15-29.5 19.5T630 287q-33-21-72-31t-78-10q-140 0-235 94.5T150 576q0 141 95 235.5T480 906q139 0 234.5-94T810 579q0-14-1-26.5t-4-25.5q-3-20 7.5-36t30.5-18q19-4 35.5 8t17.5 31q1 16 3.5 32t2.5 32q0 88-32.5 166T780 876.5Q723 933 646 965t-166 32Zm-61-354 388-389q13-12 31-12.5t33 12.5q13 15 13 33t-13 32L452 737q-14 14-33.5 14T387 737L276 625q-13-11-12.5-30t13.5-32q13-12 32-12t32 12l78 80Z"/></svg>